<?xml version="1.0" encoding="UTF-8" ?>
<!DOCTYPE svg PUBLIC "-//W3C//DTD SVG 1.1//EN" "http://www.w3.org/Graphics/SVG/1.1/DTD/svg11.dtd">
<svg width="81pt" height="81pt" viewBox="0 0 81 81" version="1.1" xmlns="http://www.w3.org/2000/svg">
<g id="#010101ff">
<path fill="#010101" opacity="1.00" d=" M 32.01 0.00 L 49.33 0.00 C 50.34 0.47 51.34 0.93 52.35 1.39 C 53.38 1.66 54.41 1.94 55.44 2.21 C 62.10 5.14 68.55 9.13 72.78 15.19 C 75.61 18.11 76.89 22.04 78.78 25.56 C 79.35 27.76 80.12 29.89 81.00 31.99 L 81.00 49.34 C 80.53 50.34 80.07 51.35 79.62 52.36 C 79.34 53.38 79.06 54.39 78.79 55.41 C 75.87 62.09 71.86 68.55 65.80 72.79 C 62.89 75.62 58.96 76.88 55.46 78.78 C 53.26 79.35 51.12 80.11 49.03 81.00 L 31.66 81.00 C 30.66 80.53 29.65 80.07 28.63 79.63 C 27.62 79.34 26.60 79.06 25.58 78.79 C 18.92 75.87 12.46 71.88 8.24 65.83 C 5.39 62.91 4.11 58.96 2.22 55.43 C 1.65 53.26 0.90 51.13 0.00 49.07 L 0.00 31.66 C 0.47 30.65 0.93 29.64 1.38 28.63 C 1.66 27.62 1.94 26.60 2.21 25.59 C 4.10 22.05 5.38 18.10 8.23 15.18 C 12.46 9.13 18.90 5.12 25.58 2.23 C 26.58 1.93 27.59 1.63 28.59 1.31 C 29.73 0.87 30.87 0.43 32.01 0.00 M 32.49 4.84 C 32.00 4.92 31.02 5.09 30.53 5.17 C 29.58 5.72 28.55 6.07 27.46 6.22 C 25.87 7.14 24.20 7.90 22.53 8.67 C 21.52 9.31 20.53 9.98 19.54 10.66 C 15.74 13.30 12.35 16.76 9.64 20.52 C 9.42 21.03 8.98 22.06 8.77 22.57 C 7.85 24.16 7.16 25.87 6.22 27.45 C 6.08 28.55 5.72 29.58 5.16 30.53 C 5.08 31.02 4.92 32.00 4.84 32.49 C 3.53 33.94 4.10 35.95 3.98 37.70 C 5.51 38.04 7.56 38.95 7.03 40.89 C 7.14 42.52 5.14 42.88 3.98 43.30 C 4.04 45.05 3.68 46.94 4.70 48.51 C 4.94 49.57 5.32 50.57 5.85 51.52 C 5.91 52.02 6.04 53.03 6.11 53.54 C 7.18 55.06 7.84 56.83 8.76 58.44 C 8.98 58.95 9.42 59.97 9.64 60.48 C 12.35 64.24 15.74 67.69 19.54 70.35 C 20.53 71.02 21.52 71.69 22.53 72.33 C 24.21 73.11 25.94 73.82 27.47 74.89 C 27.97 74.95 28.98 75.08 29.49 75.14 C 30.43 75.68 31.43 76.07 32.49 76.30 C 34.05 77.34 35.95 76.95 37.71 77.02 C 38.04 75.50 38.93 73.46 40.85 73.96 C 42.50 73.83 42.88 75.84 43.30 77.02 C 45.05 76.95 46.95 77.34 48.51 76.30 C 49.57 76.07 50.57 75.68 51.51 75.14 C 52.02 75.08 53.03 74.96 53.54 74.89 C 55.06 73.83 56.79 73.11 58.47 72.33 C 59.48 71.68 60.47 71.02 61.46 70.34 C 65.25 67.69 68.68 64.26 71.32 60.47 C 72.44 58.15 73.51 55.80 74.78 53.55 C 74.90 52.44 75.25 51.42 75.84 50.48 C 75.92 49.99 76.08 49.00 76.16 48.51 C 77.47 47.06 76.90 45.05 77.02 43.30 C 75.50 42.95 73.44 42.06 73.96 40.13 C 73.85 38.49 75.85 38.11 77.02 37.70 C 76.96 35.94 77.32 34.05 76.30 32.49 C 76.08 31.42 75.69 30.42 75.15 29.49 C 75.08 28.98 74.96 27.97 74.90 27.46 C 73.82 25.93 73.15 24.18 72.23 22.56 C 72.02 22.05 71.58 21.03 71.36 20.51 C 68.64 16.77 65.27 13.30 61.46 10.66 C 60.47 9.98 59.48 9.32 58.47 8.67 C 56.79 7.89 55.06 7.17 53.54 6.10 C 53.03 6.04 52.01 5.92 51.50 5.86 C 50.58 5.29 49.58 4.90 48.51 4.69 C 46.94 3.70 45.06 4.03 43.30 3.98 C 42.95 5.49 42.07 7.55 40.14 7.04 C 38.50 7.17 38.12 5.15 37.70 3.98 C 35.95 4.09 33.95 3.55 32.49 4.84 Z" />
<path fill="#010101" opacity="1.00" d=" M 59.52 17.93 C 61.71 17.56 63.48 19.27 63.07 21.48 C 62.10 22.36 61.29 23.39 60.65 24.53 C 59.98 25.53 59.31 26.53 58.66 27.54 C 57.98 28.53 57.30 29.52 56.66 30.53 C 55.98 31.53 55.31 32.52 54.66 33.54 C 53.98 34.53 53.30 35.52 52.66 36.54 C 51.98 37.53 51.31 38.52 50.66 39.54 C 49.95 40.53 49.26 41.53 48.71 42.62 C 48.35 43.06 47.64 43.94 47.28 44.38 C 46.85 45.85 45.86 46.86 44.38 47.28 C 43.94 47.64 43.06 48.36 42.62 48.71 C 41.53 49.26 40.52 49.95 39.53 50.66 C 38.52 51.30 37.53 51.97 36.54 52.66 C 35.53 53.30 34.53 53.98 33.54 54.66 C 32.53 55.31 31.53 55.98 30.53 56.65 C 29.52 57.30 28.53 57.98 27.53 58.66 C 26.52 59.30 25.53 59.98 24.53 60.65 C 23.39 61.29 22.36 62.10 21.48 63.07 C 19.27 63.47 17.56 61.71 17.93 59.52 C 18.90 58.64 19.71 57.61 20.34 56.46 C 21.02 55.47 21.70 54.48 22.34 53.46 C 23.02 52.47 23.70 51.48 24.35 50.46 C 25.02 49.47 25.70 48.48 26.34 47.46 C 27.02 46.47 27.69 45.47 28.34 44.46 C 29.02 43.47 29.70 42.48 30.35 41.47 C 31.05 40.47 31.73 39.46 32.29 38.38 C 32.64 37.94 33.36 37.06 33.72 36.62 C 34.15 35.14 35.14 34.14 36.63 33.72 C 37.06 33.36 37.94 32.64 38.38 32.28 C 39.46 31.73 40.47 31.05 41.46 30.34 C 42.47 29.69 43.47 29.02 44.46 28.34 C 45.48 27.70 46.47 27.02 47.46 26.34 C 48.47 25.70 49.47 25.02 50.46 24.34 C 51.47 23.69 52.47 23.02 53.47 22.34 C 54.48 21.70 55.47 21.02 56.46 20.34 C 57.61 19.71 58.64 18.90 59.52 17.93 M 37.44 38.99 C 35.93 40.68 34.86 42.69 33.73 44.62 C 33.37 45.07 32.65 45.95 32.29 46.39 C 31.33 48.04 30.08 49.54 29.58 51.42 C 31.45 50.92 32.96 49.66 34.61 48.71 C 35.05 48.35 35.94 47.63 36.38 47.27 C 38.31 46.13 40.32 45.06 42.00 43.56 C 41.75 41.52 39.48 39.26 37.44 38.99 M 29.58 51.42 C 29.35 51.65 29.35 51.65 29.58 51.42 Z" />
</g>
</svg>
