<?xml version="1.0" encoding="UTF-8" ?>
<!DOCTYPE svg PUBLIC "-//W3C//DTD SVG 1.1//EN" "http://www.w3.org/Graphics/SVG/1.1/DTD/svg11.dtd">
<svg width="67pt" height="66pt" viewBox="0 0 67 66" version="1.1" xmlns="http://www.w3.org/2000/svg">
<g id="#020202ff">
<path fill="#020202" opacity="1.00" d=" M 11.59 0.00 L 13.57 0.00 C 20.49 7.08 27.60 13.98 34.52 21.07 C 41.11 14.63 47.14 7.56 54.40 1.86 C 57.17 2.07 60.26 1.56 62.65 3.31 C 64.56 6.05 65.05 9.49 63.98 12.65 C 57.52 18.83 51.35 25.30 44.93 31.52 C 52.05 38.39 58.90 45.53 66.00 52.42 C 66.00 52.96 66.00 54.03 66.00 54.57 C 62.07 58.31 58.40 62.31 54.43 66.00 L 52.43 66.00 C 45.53 58.92 38.39 52.06 31.52 44.93 C 25.97 50.60 20.33 56.18 14.72 61.79 C 13.27 62.07 11.82 62.32 10.37 62.59 C 9.93 62.83 9.04 63.30 8.59 63.54 C 6.39 63.77 4.18 64.03 1.96 64.19 C 2.00 62.32 2.03 60.45 2.07 58.58 C 2.68 57.20 3.27 55.81 3.88 54.44 C 3.94 53.42 3.98 52.41 4.03 51.40 C 9.76 45.83 15.29 40.05 21.06 34.53 C 14.03 27.50 6.90 20.56 0.00 13.41 L 0.00 11.42 C 3.94 7.69 7.60 3.68 11.59 0.00 M 4.93 12.55 C 11.31 18.70 17.57 24.97 23.71 31.34 C 25.88 29.61 27.91 27.72 29.80 25.70 C 28.50 24.07 29.93 22.19 30.03 20.48 C 28.31 21.55 26.70 22.77 25.12 24.03 C 24.38 23.06 24.16 21.83 23.81 20.69 C 24.81 19.59 26.02 18.55 26.25 16.99 C 24.93 17.25 23.65 17.68 22.32 17.91 C 19.98 16.78 21.89 14.39 22.10 12.61 C 20.02 13.58 16.84 16.73 15.08 13.61 C 16.23 12.14 17.71 10.86 18.36 9.06 C 16.22 9.55 13.76 10.73 12.82 7.87 C 13.22 7.04 14.02 5.40 14.42 4.57 C 10.35 5.93 8.05 9.87 4.93 12.55 M 7.92 53.45 C 9.48 54.98 11.03 56.52 12.55 58.08 C 27.60 42.80 42.77 27.62 58.06 12.58 C 56.53 11.05 55.03 9.50 53.55 7.93 C 38.35 23.11 23.26 38.41 7.92 53.45 M 40.32 36.04 C 38.28 38.27 36.15 40.42 33.94 42.49 C 35.30 43.28 36.71 44.04 37.79 45.22 C 43.00 50.54 48.32 55.75 53.54 61.07 C 55.46 59.09 57.48 57.20 59.18 55.02 C 58.48 54.15 57.77 53.29 57.10 52.40 C 58.47 51.39 59.34 50.20 57.91 48.70 C 56.40 49.63 54.57 53.48 52.68 51.31 C 50.49 49.49 54.21 47.73 55.18 46.36 C 53.75 44.01 52.45 46.09 51.18 47.14 C 49.28 45.36 48.51 42.97 50.20 40.64 C 48.80 41.84 47.44 43.08 45.98 44.19 C 44.37 43.76 44.18 42.14 43.84 40.76 C 44.75 39.54 45.69 38.33 46.65 37.14 C 44.25 38.20 42.02 38.23 40.32 36.04 Z" />
</g>
</svg>
