<?xml version="1.0" encoding="UTF-8" ?>
<!DOCTYPE svg PUBLIC "-//W3C//DTD SVG 1.1//EN" "http://www.w3.org/Graphics/SVG/1.1/DTD/svg11.dtd">
<svg width="78pt" height="78pt" viewBox="0 0 78 78" version="1.1" xmlns="http://www.w3.org/2000/svg">
<g id="#020202ff">
<path fill="#020202" opacity="1.00" d=" M 32.24 1.00 C 36.39 1.05 40.57 0.73 44.71 1.17 C 46.75 4.02 45.90 8.09 47.94 11.10 C 48.58 11.08 49.85 11.04 50.49 11.02 C 51.65 11.76 52.81 12.49 53.97 13.22 C 56.12 11.43 58.35 9.73 60.56 8.01 C 61.06 8.01 62.06 8.00 62.55 8.00 C 65.01 10.51 67.49 13.00 70.02 15.44 C 69.99 16.43 69.96 17.41 69.93 18.39 C 68.53 19.98 67.05 21.55 66.15 23.50 C 66.17 25.21 66.73 26.86 67.07 28.53 C 67.77 29.62 68.46 30.72 69.16 31.81 C 72.14 32.00 75.09 32.47 78.00 33.12 L 78.00 44.75 C 76.90 45.41 75.78 46.02 74.65 46.63 C 72.53 46.84 70.40 46.99 68.27 47.12 C 67.96 48.27 67.64 49.43 67.31 50.58 C 67.16 51.04 66.87 51.97 66.72 52.43 C 66.43 53.37 66.15 54.31 65.86 55.25 C 67.26 57.00 68.59 58.80 69.98 60.56 C 69.99 61.56 69.99 62.55 70.00 63.55 C 67.48 66.01 64.99 68.50 62.53 71.03 C 62.05 71.00 61.08 70.95 60.59 70.92 C 58.55 69.17 56.39 67.57 54.22 65.97 C 52.12 66.87 49.99 67.71 47.82 68.41 C 46.24 71.39 45.87 74.76 45.10 78.00 L 32.24 78.00 C 31.88 75.11 31.33 72.25 30.85 69.38 C 28.54 68.26 26.25 67.10 23.98 65.91 C 21.34 67.80 18.64 69.60 15.91 71.35 C 12.89 68.29 9.53 65.52 6.93 62.08 C 8.31 59.53 10.24 57.33 12.17 55.17 C 11.62 53.57 11.05 51.97 10.51 50.36 C 9.34 45.68 3.61 46.90 0.00 45.77 L 0.00 33.13 C 0.58 33.02 1.73 32.79 2.30 32.67 C 5.38 31.99 9.74 32.64 10.52 28.63 C 11.06 27.00 11.62 25.38 12.16 23.76 C 10.76 22.00 9.41 20.21 8.02 18.45 C 8.01 17.45 8.00 16.45 8.00 15.44 C 10.52 12.99 13.00 10.50 15.45 7.98 C 15.94 8.00 16.91 8.04 17.39 8.06 C 19.48 9.85 21.70 11.49 23.89 13.15 C 26.19 11.93 28.51 10.75 30.85 9.61 C 31.33 6.75 31.88 3.89 32.24 1.00 M 36.09 5.00 C 35.06 7.67 35.26 10.60 34.45 13.30 C 33.50 13.73 32.54 14.10 31.56 14.43 C 30.52 14.69 29.48 14.95 28.44 15.20 C 27.45 15.78 26.46 16.37 25.47 16.96 C 24.15 16.97 22.84 16.98 21.53 16.99 C 20.03 15.51 18.47 14.06 16.58 13.10 C 15.30 14.10 14.16 15.27 12.97 16.38 C 12.99 16.90 13.04 17.93 13.07 18.45 C 14.49 20.00 15.80 21.64 17.02 23.35 C 17.01 23.93 17.00 25.07 16.99 25.64 C 16.56 26.05 15.69 26.86 15.26 27.27 C 14.90 28.36 14.57 29.47 14.29 30.59 C 14.17 31.06 13.94 32.01 13.82 32.48 C 13.53 33.08 12.97 34.30 12.68 34.90 C 12.18 35.01 11.18 35.21 10.67 35.31 C 8.51 36.07 6.20 36.05 3.93 36.10 C 4.10 38.21 3.67 40.46 4.55 42.45 C 6.42 43.23 8.51 42.95 10.48 43.13 C 11.04 43.42 12.15 44.00 12.70 44.29 C 13.00 44.85 13.58 45.96 13.88 46.52 C 13.94 47.01 14.06 48.00 14.12 48.49 C 15.06 50.17 15.98 51.86 16.93 53.53 C 16.94 54.02 16.95 54.99 16.96 55.47 C 15.62 57.13 14.39 58.87 13.06 60.53 C 13.05 61.03 13.01 62.02 12.99 62.52 C 14.13 63.66 15.25 64.81 16.35 65.97 C 18.61 64.21 20.99 62.61 23.39 61.04 C 24.11 61.46 24.85 61.88 25.58 62.29 C 26.55 62.78 27.52 63.27 28.49 63.77 C 29.51 64.03 30.53 64.30 31.55 64.57 C 32.53 64.90 33.49 65.27 34.44 65.70 C 35.34 67.46 34.92 69.56 35.16 71.47 C 35.46 72.10 36.07 73.37 36.37 74.01 C 38.15 74.00 39.94 74.00 41.73 74.00 C 42.04 72.47 42.32 70.94 42.55 69.40 C 42.79 66.95 43.77 64.84 46.44 64.56 C 47.49 64.30 48.54 64.06 49.59 63.82 C 51.08 62.87 52.50 61.83 54.04 60.97 C 56.86 62.22 59.10 64.41 61.62 66.14 C 62.79 64.80 64.05 63.53 65.08 62.08 C 64.00 59.73 62.44 57.65 61.01 55.50 C 61.03 55.01 61.06 54.02 61.08 53.53 C 62.02 51.85 62.94 50.16 63.88 48.48 C 63.94 47.99 64.07 47.00 64.13 46.51 C 64.42 45.96 65.00 44.86 65.29 44.31 C 65.85 44.01 66.96 43.42 67.52 43.13 C 69.48 42.91 71.62 43.32 73.43 42.40 C 74.39 40.45 73.88 38.15 74.07 36.06 C 71.10 36.07 68.04 36.18 65.27 34.92 C 64.99 34.31 64.43 33.08 64.16 32.47 C 64.09 31.98 63.95 31.01 63.88 30.52 C 62.94 28.83 62.01 27.13 61.06 25.45 C 61.04 24.47 61.03 23.49 61.02 22.51 C 62.67 20.89 64.27 19.14 65.09 16.94 C 64.09 15.50 62.85 14.25 61.71 12.92 C 59.62 14.24 57.58 15.64 55.51 16.98 C 54.52 16.99 53.52 16.98 52.53 16.96 C 51.55 16.37 50.56 15.78 49.57 15.20 C 48.53 14.95 47.49 14.70 46.44 14.44 C 43.78 14.15 42.77 12.07 42.56 9.61 C 42.31 8.07 42.04 6.53 41.73 5.00 C 39.85 5.00 37.97 5.00 36.09 5.00 Z" />
<path fill="#020202" opacity="1.00" d=" M 37.32 17.70 C 38.46 17.07 39.59 17.11 40.70 17.80 C 42.29 17.93 43.89 18.02 45.49 18.10 C 46.46 18.64 47.44 19.17 48.42 19.69 C 53.52 21.94 57.60 26.32 59.75 31.45 C 60.07 32.87 60.39 34.28 60.82 35.67 C 61.04 38.67 61.41 41.80 60.28 44.67 C 60.14 45.62 60.00 46.57 59.88 47.52 C 57.93 51.98 54.53 55.62 50.55 58.35 C 48.82 59.14 47.12 59.98 45.44 60.87 C 43.86 60.97 42.27 61.07 40.69 61.21 C 39.59 61.89 38.46 61.92 37.32 61.30 C 35.32 61.06 33.31 60.84 31.35 60.36 C 30.88 60.23 29.95 59.98 29.48 59.85 C 24.84 56.66 20.34 52.86 18.15 47.52 C 18.02 47.05 17.77 46.11 17.64 45.64 C 16.60 41.65 16.63 37.36 17.62 33.36 C 17.77 32.90 18.06 31.98 18.20 31.52 C 18.44 30.98 18.92 29.88 19.16 29.34 C 21.71 25.19 25.32 21.74 29.36 19.06 C 29.86 18.96 30.85 18.77 31.34 18.67 C 33.30 18.14 35.31 17.94 37.32 17.70 M 33.53 22.05 C 28.76 24.26 24.84 27.95 22.06 32.39 C 21.97 32.88 21.79 33.87 21.69 34.36 C 20.63 37.67 20.63 41.32 21.69 44.63 C 21.78 45.13 21.97 46.13 22.07 46.62 C 24.50 50.25 27.47 53.76 31.41 55.79 C 35.03 57.89 39.39 56.81 43.35 56.85 C 44.43 56.47 45.52 56.12 46.63 55.80 C 50.76 53.57 54.03 49.92 55.71 45.53 C 56.11 44.48 56.50 43.42 56.90 42.36 C 57.06 40.02 57.13 37.62 56.34 35.38 C 56.22 34.91 55.97 33.97 55.85 33.51 C 53.72 28.33 49.52 24.32 44.45 22.04 C 40.81 21.99 37.17 21.99 33.53 22.05 Z" />
<path fill="#020202" opacity="1.00" d=" M 36.55 28.03 C 38.18 28.02 39.81 28.02 41.44 28.04 C 41.99 28.33 43.08 28.91 43.62 29.20 C 46.42 30.49 48.49 32.80 50.01 35.43 C 50.00 38.15 50.00 40.87 50.01 43.59 C 48.21 47.12 44.94 49.34 41.45 50.97 C 39.81 50.98 38.18 50.98 36.54 50.97 C 33.25 49.21 29.45 47.37 28.22 43.52 C 27.75 40.85 28.04 38.09 27.99 35.39 C 29.81 31.88 33.06 29.66 36.55 28.03 M 37.58 31.76 C 35.66 33.20 33.77 34.69 31.99 36.31 C 32.00 38.40 32.00 40.49 32.01 42.58 C 33.14 43.66 34.26 44.76 35.37 45.88 C 37.82 46.77 40.34 46.70 42.81 45.93 C 43.88 44.49 44.95 43.04 46.00 41.58 C 46.00 40.19 46.00 38.81 46.00 37.42 C 44.94 35.94 43.88 34.46 42.77 33.01 C 42.23 32.96 41.14 32.86 40.60 32.81 C 39.59 32.48 38.58 32.13 37.58 31.76 Z" />
</g>
</svg>
