<?xml version="1.0" encoding="utf-8"?>
<!-- Generator: Adobe Illustrator 17.0.0, SVG Export Plug-In . SVG Version: 6.00 Build 0)  -->
<!DOCTYPE svg PUBLIC "-//W3C//DTD SVG 1.1//EN" "http://www.w3.org/Graphics/SVG/1.1/DTD/svg11.dtd">
<svg version="1.1" id="Layer_1" xmlns="http://www.w3.org/2000/svg" xmlns:xlink="http://www.w3.org/1999/xlink" x="0px" y="0px"
	 width="73px" height="73px" viewBox="0 0 73 73" enable-background="new 0 0 73 73" xml:space="preserve">
<g>
	<g>
		<path d="M17.42,0.5H20c3.07,0.61,5.23,2.89,6.61,5.55c4.34-0.37,8.69-0.71,13.03-1.19c1-0.76,1.97-1.58,3.08-2.21
			c3.1-1.58,7.2-0.36,9.09,2.54c1.06,1.47,1.1,3.35,1.39,5.07c4,4.81,8.2,9.45,12.22,14.25c2.37,3.17,7.36,3.73,8.08,8.23v2.52
			c-0.48,4.24-5.22,4.95-7.08,8.22c-3.92,6.15-7.97,12.22-11.89,18.37c4.13,0.33,9.23-1.25,12.49,2.11
			c2.59,2.46,2.29,6.32,1.79,9.54H27.2c-0.48-2.34-0.78-4.87,0.12-7.15c0.96-2.47,3.39-4.37,6.07-4.45
			c3.58-0.19,7.16-0.02,10.74-0.09c5.1-8.01,10.46-15.84,15.57-23.84c-0.79-2.3-0.86-4.71-0.3-7.06c-4.1-4.74-8.17-9.51-12.3-14.23
			c-2.74-0.03-5.33-0.92-7.25-2.92c-4.55,0.35-9.13,0.55-13.62,1.4c6.04,4.19,10.53,10.91,10.76,18.4c0.33,1.86-1.6,2.72-2.9,3.47
			c-5.43,2.66-11.64,3-17.58,2.83C10.92,39.57,4.91,38.78,0.5,35v-2.65c0.82-6.79,4.69-12.88,10.26-16.76
			c0.02-3.11-0.29-6.27,0.3-9.35C11.82,3.23,14.57,1.3,17.42,0.5z M13.76,7.45c-0.41,2.96-0.14,5.95-0.13,8.92
			c3.4,0.19,6.8,0.19,10.2,0.06c-0.03-2.91,0.18-5.83-0.09-8.74c-0.32-2.47-2.79-4.56-5.31-4.23C16.21,3.53,14.19,5.28,13.76,7.45z
			 M44.9,4.96c-3.68,0.55-4.77,5.9-1.64,7.87c2.61,2.05,6.83-0.03,6.87-3.33C50.39,6.73,47.6,4.33,44.9,4.96z M26.85,8.95
			c-0.02,0.74-0.07,2.22-0.09,2.96c3.93-0.31,7.86-0.68,11.79-1.02c-0.03-0.74-0.07-2.21-0.09-2.95
			C34.59,8.29,30.72,8.64,26.85,8.95z M51.95,13.31c-0.53,0.52-1.59,1.57-2.11,2.09c3.87,4.36,7.59,8.85,11.48,13.2
			c0.62-0.4,1.85-1.19,2.47-1.59C59.83,22.45,55.86,17.91,51.95,13.31z M3.34,33.67c3.45,1.87,7.29,2.99,11.23,3.15
			c6.6,0.37,13.66,0.24,19.57-3.12c-0.45-5.71-3.24-11.22-7.8-14.73c-5.07,0.69-10.2,0.59-15.28,0.03
			C6.62,22.6,3.78,27.96,3.34,33.67z M64.88,29.89c-3.24,0.88-4.15,5.62-1.42,7.59c2.46,2.31,6.85,0.36,7.07-2.9
			C71.1,31.56,67.72,28.87,64.88,29.89z M61.86,40.02c-4.74,7.31-9.6,14.55-14.3,21.88c0.89-0.03,2.67-0.1,3.56-0.14
			c4.38-6.88,8.9-13.69,13.33-20.54C63.81,40.92,62.51,40.32,61.86,40.02z M31.52,65.52c-1.68,1.05-1.75,3.16-2.03,4.91
			c12.29,0.19,24.59,0.15,36.87,0.02c-0.23-1.73-0.26-3.85-1.94-4.89c-1.06-1-2.59-0.73-3.9-0.81c-8.35,0.02-16.69,0.03-25.04,0
			C34.15,64.83,32.62,64.55,31.52,65.52z"/>
	</g>
</g>
</svg>
