<?xml version="1.0" encoding="UTF-8" ?>
<!DOCTYPE svg PUBLIC "-//W3C//DTD SVG 1.1//EN" "http://www.w3.org/Graphics/SVG/1.1/DTD/svg11.dtd">
<svg width="73pt" height="74pt" viewBox="0 0 73 74" version="1.1" xmlns="http://www.w3.org/2000/svg">
<g id="#020202ff">
<path fill="#020202" opacity="1.00" d=" M 43.97 0.00 L 54.28 0.00 C 55.34 0.43 56.40 0.84 57.47 1.23 C 64.68 4.81 70.71 11.17 73.00 18.98 L 73.00 30.25 C 70.81 34.42 68.63 39.06 64.21 41.28 C 61.33 43.46 57.75 44.01 54.33 44.78 C 53.92 44.78 53.11 44.79 52.70 44.79 C 51.05 44.24 49.33 43.96 47.62 43.72 C 46.59 43.41 45.56 43.11 44.54 42.80 C 43.47 42.21 42.40 41.63 41.34 41.04 C 37.06 44.89 34.05 49.88 29.79 53.74 C 22.96 60.45 16.32 67.35 9.43 74.00 L 1.72 74.00 C 1.94 72.63 1.37 72.07 -0.00 72.32 L 0.00 64.47 C 0.99 63.46 2.02 62.48 3.06 61.50 C 2.02 60.51 0.99 59.51 0.00 58.47 L 0.00 54.52 C 2.23 50.73 5.58 46.63 10.45 46.88 C 11.57 48.04 12.66 49.25 13.99 50.16 C 20.44 44.67 25.89 38.09 32.24 32.46 C 31.76 30.68 31.06 28.96 30.15 27.36 C 30.01 26.46 29.87 25.57 29.72 24.68 C 28.56 21.35 28.65 17.68 29.66 14.33 C 29.78 13.89 30.01 13.02 30.13 12.58 C 32.03 7.62 36.04 3.98 40.46 1.24 C 41.63 0.83 42.80 0.42 43.97 0.00 M 44.48 4.21 C 40.08 5.99 36.39 9.29 34.10 13.44 C 34.03 13.94 33.89 14.96 33.82 15.47 C 32.47 18.18 32.51 21.81 33.81 24.54 C 33.88 25.05 34.03 26.06 34.11 26.57 C 36.01 29.41 37.58 32.59 40.29 34.77 C 42.80 36.81 45.67 38.32 48.49 39.88 C 49.48 39.96 50.48 40.05 51.47 40.15 C 52.65 41.34 54.34 41.23 55.54 40.14 C 56.55 40.06 57.55 39.99 58.56 39.92 C 60.61 38.50 62.80 37.31 64.78 35.79 C 66.30 33.82 67.50 31.62 68.92 29.57 C 68.98 28.55 69.05 27.53 69.13 26.52 C 70.33 25.36 70.24 23.67 69.16 22.47 C 69.05 21.49 68.93 20.53 68.82 19.56 C 68.36 18.56 68.01 17.54 67.74 16.48 C 64.95 11.85 60.94 8.14 56.50 5.12 C 56.01 5.04 55.02 4.88 54.53 4.81 C 51.29 3.16 47.87 3.09 44.48 4.21 M 30.22 40.29 C 21.47 49.00 12.82 57.80 4.00 66.43 C 4.00 67.62 4.00 68.81 4.00 70.00 C 5.20 70.00 6.39 69.99 7.59 69.99 C 16.21 61.16 25.03 52.52 33.73 43.77 C 35.17 42.20 37.08 40.93 38.06 39.01 C 37.56 37.59 36.38 36.44 34.97 35.93 C 33.08 36.98 31.78 38.83 30.22 40.29 M 8.38 50.88 C 6.99 52.46 5.48 53.91 4.12 55.52 C 3.61 56.76 4.84 57.92 6.03 58.11 C 7.93 56.84 9.41 55.05 11.15 53.59 C 10.22 52.69 9.30 51.79 8.38 50.88 Z" />
<path fill="#020202" opacity="1.00" d=" M 46.49 8.07 C 48.84 8.12 51.47 7.38 53.55 8.81 C 54.04 8.89 55.02 9.04 55.51 9.11 C 58.96 11.25 61.74 14.04 63.88 17.48 C 63.96 17.97 64.11 18.95 64.19 19.44 C 65.71 21.87 64.80 24.89 64.97 27.59 C 63.79 29.23 62.70 30.93 61.66 32.66 C 59.93 33.69 58.23 34.79 56.60 35.97 C 54.23 36.03 51.85 36.02 49.48 35.93 C 44.74 33.74 40.75 30.07 38.07 25.60 C 38.01 24.58 37.94 23.56 37.86 22.54 C 36.59 21.10 36.64 18.92 37.82 17.45 C 37.89 16.94 38.02 15.92 38.09 15.42 C 39.65 11.74 43.08 9.76 46.49 8.07 M 47.43 12.02 C 45.44 13.22 43.63 14.69 42.04 16.39 C 41.99 16.91 41.90 17.95 41.85 18.47 C 40.68 19.66 40.76 21.34 41.85 22.54 C 41.90 23.05 42.01 24.07 42.06 24.58 C 43.41 25.71 44.61 27.03 45.35 28.65 C 47.07 29.70 48.78 30.78 50.42 31.97 C 52.11 31.99 53.80 31.99 55.49 31.96 C 56.41 31.02 57.48 30.27 58.62 29.63 C 59.27 28.49 60.02 27.41 60.96 26.49 C 61.00 24.83 60.98 23.17 60.93 21.50 C 59.98 19.97 59.24 18.32 58.26 16.81 C 56.67 14.42 53.81 13.56 51.50 12.07 C 50.14 12.05 48.79 12.03 47.43 12.02 Z" />
</g>
</svg>
