<?xml version="1.0" encoding="UTF-8" ?>
<!DOCTYPE svg PUBLIC "-//W3C//DTD SVG 1.1//EN" "http://www.w3.org/Graphics/SVG/1.1/DTD/svg11.dtd">
<svg width="73pt" height="73pt" viewBox="0 0 73 73" version="1.1" xmlns="http://www.w3.org/2000/svg">
<g id="#000000ff">
<path fill="#000000" opacity="1.00" d=" M 68.73 0.00 L 73.00 0.00 L 73.00 4.28 C 71.14 8.33 69.14 12.32 67.42 16.44 C 60.80 32.11 54.00 47.70 47.38 63.36 C 46.01 66.62 44.51 69.83 42.95 73.00 L 39.51 73.00 C 36.12 66.50 32.95 59.88 29.78 53.28 C 28.68 51.11 27.62 48.86 25.92 47.08 C 24.15 45.38 21.89 44.32 19.73 43.22 C 13.12 40.04 6.50 36.88 0.00 33.48 L 0.00 30.05 C 3.40 28.37 6.84 26.78 10.34 25.32 C 25.77 18.81 41.12 12.10 56.56 5.58 C 60.68 3.85 64.67 1.86 68.73 0.00 M 40.56 17.54 C 33.81 20.47 27.01 23.31 20.27 26.27 C 16.07 27.97 11.84 29.62 7.84 31.76 C 14.38 35.25 20.91 38.81 27.76 41.62 C 32.84 37.09 37.32 31.94 42.25 27.25 C 47.87 21.39 54.02 16.03 59.25 9.80 C 52.78 11.76 46.74 14.84 40.56 17.54 M 45.75 30.75 C 41.06 35.68 35.91 40.16 31.38 45.24 C 34.20 52.09 37.76 58.63 41.24 65.16 C 42.99 61.82 44.50 58.37 45.86 54.86 C 50.44 43.85 55.38 33.01 60.09 22.06 C 61.28 19.35 62.31 16.57 63.21 13.75 C 56.97 18.97 51.61 25.13 45.75 30.75 Z" />
</g>
</svg>
