<?xml version="1.0" encoding="utf-8"?>
<!-- Generator: Adobe Illustrator 17.0.0, SVG Export Plug-In . SVG Version: 6.00 Build 0)  -->
<!DOCTYPE svg PUBLIC "-//W3C//DTD SVG 1.1//EN" "http://www.w3.org/Graphics/SVG/1.1/DTD/svg11.dtd">
<svg version="1.1" id="Layer_1" xmlns="http://www.w3.org/2000/svg" xmlns:xlink="http://www.w3.org/1999/xlink" x="0px" y="0px"
	 width="45.64px" height="45.639px" viewBox="0 0 45.64 45.639" enable-background="new 0 0 45.64 45.639" xml:space="preserve">
<g>
	<defs>
		<rect id="SVGID_1_" y="0" width="45.64" height="45.639"/>
	</defs>
	<clipPath id="SVGID_2_">
		<use xlink:href="#SVGID_1_"  overflow="visible"/>
	</clipPath>
	<path clip-path="url(#SVGID_2_)" fill="#B49664" d="M38.95,6.689C34.821,2.56,29.124,0,22.82,0S10.818,2.56,6.689,6.689
		S0,16.516,0,22.82s2.56,12.002,6.689,16.131s9.827,6.688,16.131,6.688s12.001-2.559,16.13-6.688
		c4.13-4.129,6.689-9.827,6.689-16.131S43.08,10.818,38.95,6.689 M22.82,3.441c5.367,0,10.212,2.174,13.708,5.67
		c3.523,3.524,5.671,8.369,5.671,13.709c0,3.42-0.879,6.624-2.423,9.405V20.094v-2.449l-2.202,1.046l-10.79,5.065l-2.01,0.936
		l1.597,1.568l2.642,2.588l-9.332,1.706l4.363-6.781l0.014,0.01l6.469-10.02l1.928-3.028l-3.525,0.661l-15.8,2.918l-2.946,0.55
		l2.149,2.064l3.192,3.112l-6.552,3.083V9.263c0.048-0.048,0.09-0.103,0.138-0.152C12.634,5.615,17.48,3.441,22.82,3.441
		 M22.82,42.199c-5.34,0-10.186-2.148-13.709-5.671c-3.496-3.496-5.67-8.341-5.67-13.708c0-3.394,0.884-6.585,2.422-9.367v12.12
		v2.422l2.202-1.019l10.791-5.092l2.037-0.936l-1.624-1.568l-2.615-2.561l9.304-1.734l-4.515,7.019l0.005,0.003l-6.309,9.797
		l-1.954,3l3.524-0.66l15.8-2.891l2.946-0.55l-2.148-2.092L30.142,25.6l6.524-3.083v13.861c-0.048,0.048-0.089,0.102-0.138,0.15
		C33.032,40.051,28.187,42.199,22.82,42.199"/>
</g>
</svg>
